HIERARCHY
ROOT hip
{
	OFFSET 0.000000 0.000000 0.000000
	CHANNELS 6 Xposition Yposition Zposition Xrotation Zrotation Yrotation 
	JOINT abdomen
	{
		OFFSET 0.000000 3.422050 0.000000
		CHANNELS 3 Xrotation Zrotation Yrotation 
		JOINT chest
		{
			OFFSET 0.000000 8.486693 -0.684411
			CHANNELS 3 Xrotation Zrotation Yrotation 
			JOINT neck
			{
				OFFSET 0.000000 10.266162 -0.273764
				CHANNELS 3 Xrotation Zrotation Yrotation 
				JOINT head
				{
					OFFSET 0.000000 3.148285 0.000000
					CHANNELS 3 Xrotation Zrotation Yrotation 
					End Site
					{
						OFFSET 0.000000 3.148289 0.000000
					}
				}
			}
			JOINT lCollar
			{
				OFFSET 3.422053 6.707223 -0.821293
				CHANNELS 3 Yrotation Zrotation Xrotation 
				JOINT lShldr
				{
					OFFSET 3.285171 0.000000 0.000000
					CHANNELS 3 Zrotation Yrotation Xrotation 
					JOINT lForeArm
					{
						OFFSET 10.129278 0.000000 0.000000
						CHANNELS 3 Yrotation Zrotation Xrotation 
						JOINT lHand
						{
							OFFSET 8.486692 0.000000 0.000000
							CHANNELS 3 Zrotation Yrotation Xrotation 
							End Site
							{
								OFFSET 4.106464 0.000000 0.000000
							}
						}
					}
				}
			}
			JOINT rCollar
			{
				OFFSET -3.558935 6.707223 -0.821293
				CHANNELS 3 Yrotation Zrotation Xrotation 
				JOINT rShldr
				{
					OFFSET -3.148289 0.000000 0.000000
					CHANNELS 3 Zrotation Yrotation Xrotation 
					JOINT rForeArm
					{
						OFFSET -10.266159 0.000000 0.000000
						CHANNELS 3 Yrotation Zrotation Xrotation 
						JOINT rHand
						{
							OFFSET -8.349810 0.000000 0.000000
							CHANNELS 3 Zrotation Yrotation Xrotation 
							End Site
							{
								OFFSET -4.106464 0.000000 0.000000
							}
						}
					}
				}
			}
		}
	}
	JOINT lThigh
	{
		OFFSET 5.338403 -1.642589 1.368821
		CHANNELS 3 Xrotation Zrotation Yrotation 
		JOINT lShin
		{
			OFFSET -2.053232 -20.121670 0.000000
			CHANNELS 3 Xrotation Zrotation Yrotation 
			JOINT lFoot
			{
				OFFSET 0.000000 -19.300380 -1.231939
				CHANNELS 3 Xrotation Yrotation Zrotation 
				End Site
				{
					OFFSET 0.000000 -2.463878 4.653993
				}
			}
		}
	}
	JOINT rThigh
	{
		OFFSET -5.338403 -1.642589 1.368821
		CHANNELS 3 Xrotation Zrotation Yrotation 
		JOINT rShin
		{
			OFFSET 2.053232 -20.121670 0.000000
			CHANNELS 3 Xrotation Zrotation Yrotation 
			JOINT rFoot
			{
				OFFSET 0.000000 -19.300380 -1.231939
				CHANNELS 3 Xrotation Yrotation Zrotation 
				End Site
				{
					OFFSET 0.000000 -2.463878 4.653993
				}
			}
		}
	}
}
MOTION
Frames: 6
Frame Time: 0.049989
3.752254 19.654194 25.434465 0.011197 -0.014096 -135.029953 10.104358 4.147376 12.320222 12.004464 -14.141647 16.391132 9.988196 -0.002314 16.205107 -22.594950 0.125122 9.006249 -1.627769 -8.185087 -79.343269 -47.742386 2.720926 56.797421 -59.585499 28.987955 -1.788121 -16.886778 15.018561 -40.834370 -57.620617 3.100913 -34.982212 40.234737 13.054835 8.919610 75.887100 3.379622 -7.030844 19.908659 -7.172175 -42.214241 -16.965733 6.960391 -0.764845 111.352463 5.560915 0.595879 41.483177 -19.570959 -2.436945 -14.680490 -5.967723 0.954791 111.549706 -7.123186 -1.949231 28.643654 -7.894871 -0.536610 
3.770881 19.878872 25.436268 0.011197 -0.014096 -135.029953 8.818600 4.547848 10.905560 11.470895 -12.517121 14.603089 9.988225 -0.002058 14.406917 -24.192373 0.223101 8.009109 1.632401 -9.556535 -76.761765 -47.744213 2.708157 56.794415 -57.322521 28.430130 -2.956137 -15.770612 13.716524 -39.966835 -51.897209 3.090956 -36.023502 40.247208 13.077150 8.935511 75.150375 3.434895 -7.035594 19.693712 -9.694988 -39.560692 -16.965733 6.960391 -0.764845 110.761055 5.517079 0.541150 42.203129 -19.545046 -2.383298 -14.680490 -5.967723 0.954791 110.971542 -7.085248 -1.878461 29.322908 -7.967788 -0.615709 
3.789508 20.103550 25.438068 0.011197 -0.014096 -135.029953 7.520483 4.917010 9.479128 10.887245 -10.904772 12.804713 9.988244 -0.001801 12.606057 -25.793871 0.293323 7.007987 4.965336 -10.779030 -74.094620 -47.746029 2.695388 56.791412 -55.080681 27.831305 -4.094257 -14.679072 12.396599 -39.128811 -46.146034 2.976517 -37.063816 40.259689 13.099463 8.951418 74.413429 3.490236 -7.039633 19.356892 -12.210245 -36.869339 -16.965733 6.960391 -0.764845 110.169647 5.472676 0.486874 42.923096 -19.518496 -2.329998 -14.680490 -5.967724 0.954791 110.393394 -7.046600 -1.808075 30.002327 -8.041647 -0.693962 
3.808135 20.328228 25.439871 0.011197 -0.014096 -135.029953 6.211407 5.254101 8.042324 10.254197 -9.307996 10.995088 9.988254 -0.001542 10.803411 -27.398108 0.335561 6.004200 8.357417 -11.842734 -71.355751 -47.747837 2.682618 56.788399 -52.862331 27.193045 -5.200224 -13.611511 11.060213 -38.319786 -40.398716 2.758585 -38.087257 40.272171 13.121773 8.967331 73.676308 3.545635 -7.042957 18.894838 -14.707035 -34.134430 -16.965733 6.960391 -0.764845 109.578262 5.427714 0.433059 43.643021 -19.491310 -2.277057 -14.680490 -5.967724 0.954791 109.815269 -7.007242 -1.738084 30.681873 -8.116429 -0.771350 
3.826761 20.552906 25.441673 0.011197 -0.014096 -135.029953 4.892840 5.558451 6.596609 9.572489 -7.730168 9.173415 9.988257 -0.001284 8.999877 -29.003708 0.349675 4.999073 11.521894 -13.346234 -68.879150 -47.749657 2.669851 56.785393 -50.669571 26.517063 -6.272048 -12.567269 9.708793 -37.539257 -34.686581 2.441312 -39.078518 40.284657 13.144076 8.983250 72.939087 3.601076 -7.045568 18.304234 -17.174288 -31.350166 -16.965733 6.960391 -0.764845 108.986954 5.382200 0.379715 44.362858 -19.463499 -2.224486 -14.680490 -5.967724 0.954791 109.237228 -6.967186 -1.668500 31.361500 -8.192123 -0.847858 
3.845388 20.777584 25.443476 0.011197 -0.014096 -135.029953 3.566316 5.829501 5.143517 8.842953 -6.174650 7.339063 9.988252 -0.001026 7.196340 -30.609316 0.335621 3.993946 14.777917 -14.715148 -66.299034 -47.751480 2.657087 56.782391 -48.504230 25.805212 -7.308012 -11.545653 8.343754 -36.786678 -29.039551 2.031754 -40.023632 40.297153 13.166378 8.999176 72.201851 3.656546 -7.047466 17.581907 -19.600887 -28.510838 -16.965733 6.960391 -0.764845 108.395706 5.336138 0.326849 45.082535 -19.435064 -2.172301 -14.680490 -5.967724 0.954791 108.659271 -6.926432 -1.599332 32.041153 -8.268707 -0.923466 
